<svg xmlns="http://www.w3.org/2000/svg" viewBox="0 0 3444.000000 2199.000000" role="img" aria-label=""><title></title><g fill="#FFFFFF"><g transform="translate(0.000000,2199.000000) scale(0.100000,-0.100000)" stroke="none">
<path d="M11010 7785 c-7 -8 -20 -15 -29 -15 -10 0 -30 -13 -46 -30 -16 -16
-36 -30 -45 -30 -9 0 -36 -20 -60 -45 -24 -25 -51 -45 -60 -45 -9 0 -36 -20
-60 -45 -24 -25 -51 -45 -60 -45 -9 0 -36 -20 -60 -45 -24 -25 -51 -45 -60
-45 -9 0 -29 -13 -45 -30 -16 -16 -36 -30 -45 -30 -8 0 -42 -27 -75 -60 -33
-33 -67 -60 -75 -60 -9 0 -29 -13 -45 -30 -16 -16 -36 -30 -45 -30 -8 0 -42
-27 -75 -60 -33 -33 -66 -60 -75 -60 -9 0 -36 -20 -60 -45 -24 -25 -51 -45
-60 -45 -9 0 -42 -27 -75 -60 -33 -33 -66 -60 -75 -60 -9 0 -42 -27 -75 -60
-33 -33 -66 -60 -75 -60 -9 0 -36 -20 -60 -45 -24 -25 -51 -45 -60 -45 -8 0
-49 -34 -90 -75 -40 -41 -83 -75 -94 -77 -12 -2 -21 -7 -21 -13 0 -7 230 -11
665 -13 l666 -2 44 45 c24 25 51 45 60 45 9 0 29 14 45 30 16 17 36 30 45 30
9 0 36 20 60 45 24 25 51 45 60 45 9 0 36 20 60 45 24 25 51 45 60 45 9 0 29
14 45 30 16 17 36 30 45 30 9 0 36 20 60 45 24 25 51 45 60 45 9 0 29 14 45
30 16 17 36 30 45 30 9 0 29 14 45 30 16 17 36 30 45 30 9 0 29 14 45 30 16
17 36 30 45 30 9 0 36 20 60 45 24 25 51 45 60 45 9 0 29 14 45 30 16 17 36
30 45 30 9 0 29 14 45 30 16 17 36 30 45 30 9 0 29 14 45 30 16 17 36 30 46
30 9 0 22 7 29 15 7 8 20 15 29 15 10 0 30 14 46 30 16 17 36 30 45 30 9 0 29
14 45 30 16 17 36 30 45 30 9 0 29 14 45 30 16 17 36 30 46 30 9 0 22 7 29 15
7 8 20 15 29 15 10 0 30 14 46 30 16 17 36 30 46 30 9 0 22 7 29 15 7 8 20 15
29 15 20 0 64 43 54 53 -3 4 -345 7 -758 7 -657 0 -754 -2 -765 -15z"/>
<path d="M17782 7777 c-13 -14 -22 -36 -22 -54 0 -17 -7 -36 -15 -43 -9 -8
-15 -30 -15 -60 0 -30 -6 -52 -15 -60 -9 -8 -15 -30 -15 -60 0 -30 -6 -52 -15
-60 -10 -9 -15 -32 -15 -75 0 -43 -5 -66 -15 -75 -10 -9 -15 -32 -15 -75 0
-43 -5 -66 -15 -75 -11 -9 -15 -33 -15 -90 0 -57 -4 -81 -15 -90 -11 -9 -15
-35 -15 -105 0 -70 -4 -96 -15 -105 -12 -10 -15 -36 -15 -118 0 -84 -3 -109
-16 -124 -26 -27 -13 -29 281 -26 l270 3 3 97 c2 69 7 99 17 108 10 9 15 32
15 75 0 43 5 66 15 75 10 9 15 32 15 75 0 43 5 66 15 75 9 8 15 30 15 60 0 30
6 52 15 60 9 8 15 30 15 60 0 30 6 52 15 60 8 7 15 27 15 45 0 18 7 38 15 45
9 8 15 30 15 60 0 30 6 52 15 60 8 7 15 27 15 45 0 18 7 38 15 45 8 7 15 27
15 45 0 18 7 38 15 45 8 7 15 20 15 30 0 10 7 23 15 30 8 7 15 27 15 45 0 18
7 38 15 45 8 7 12 16 9 21 -3 5 -141 9 -308 9 l-303 0 -21 -23z"/>
<path d="M4470 2565 c-24 -25 -51 -45 -60 -45 -9 0 -29 -13 -45 -30 -16 -16
-36 -30 -45 -30 -9 0 -36 -20 -60 -45 -24 -25 -51 -45 -60 -45 -9 0 -29 -13
-45 -30 -16 -16 -36 -30 -45 -30 -9 0 -29 -13 -45 -30 -16 -16 -36 -30 -45
-30 -9 0 -29 -13 -45 -30 -16 -16 -36 -30 -45 -30 -9 0 -36 -20 -60 -45 -24
-25 -51 -45 -60 -45 -9 0 -29 -13 -45 -30 -16 -16 -36 -30 -46 -30 -9 0 -22
-7 -29 -15 -7 -8 -20 -15 -29 -15 -10 0 -30 -13 -46 -30 -16 -16 -36 -30 -45
-30 -9 0 -29 -13 -45 -30 -16 -16 -36 -30 -45 -30 -9 0 -29 -13 -45 -30 -16
-16 -36 -30 -45 -30 -9 0 -29 -13 -45 -30 -16 -16 -36 -30 -46 -30 -9 0 -22
-7 -29 -15 -7 -8 -20 -15 -29 -15 -10 0 -30 -13 -46 -30 -16 -16 -36 -30 -45
-30 -9 0 -29 -13 -45 -30 -16 -16 -36 -30 -46 -30 -9 0 -22 -7 -29 -15 -7 -8
-20 -15 -30 -15 -10 0 -23 -7 -30 -15 -7 -8 -20 -15 -29 -15 -10 0 -30 -13
-46 -30 -16 -16 -36 -30 -46 -30 -9 0 -22 -7 -29 -15 -7 -8 -20 -15 -30 -15
-10 0 -23 -7 -30 -15 -7 -8 -20 -15 -29 -15 -10 0 -30 -13 -46 -30 -16 -16
-36 -30 -46 -30 -9 0 -22 -7 -29 -15 -7 -8 -20 -15 -30 -15 -10 0 -23 -7 -30
-15 -7 -8 -20 -15 -30 -15 -10 0 -23 -7 -30 -15 -7 -8 -20 -15 -30 -15 -10 0
-23 -7 -30 -15 -7 -8 -20 -15 -29 -15 -10 0 -30 -13 -46 -30 -16 -16 -36 -30
-46 -30 -9 0 -22 -7 -29 -15 -7 -8 -20 -15 -30 -15 -10 0 -23 -7 -30 -15 -7
-8 -20 -15 -30 -15 -10 0 -23 -7 -30 -15 -7 -8 -20 -15 -30 -15 -10 0 -23 -7
-30 -15 -7 -8 -20 -15 -30 -15 -10 0 -23 -7 -30 -15 -7 -8 -20 -15 -30 -15
-10 0 -23 -7 -30 -15 -7 -8 -20 -15 -30 -15 -10 0 -23 -7 -30 -15 -7 -8 -27
-15 -45 -15 -18 0 -38 -7 -45 -15 -7 -8 -20 -15 -30 -15 -10 0 -23 -7 -30 -15
-7 -8 -20 -15 -30 -15 -10 0 -23 -7 -30 -15 -7 -8 -20 -15 -30 -15 -10 0 -23
-7 -30 -15 -7 -8 -20 -15 -30 -15 -10 0 -23 -7 -30 -15 -7 -8 -20 -15 -30 -15
-10 0 -23 -7 -30 -15 -7 -8 -27 -15 -45 -15 -18 0 -38 -7 -45 -15 -7 -8 -20
-15 -30 -15 -10 0 -23 -7 -30 -15 -7 -8 -27 -15 -45 -15 -18 0 -38 -7 -45 -15
-7 -8 -20 -15 -30 -15 -10 0 -23 -7 -30 -15 -7 -8 -27 -15 -45 -15 -18 0 -38
-7 -45 -15 -7 -8 -27 -15 -45 -15 -18 0 -38 -7 -45 -15 -7 -8 -20 -15 -30 -15
-10 0 -23 -7 -30 -15 -7 -8 -27 -15 -45 -15 -18 0 -38 -7 -45 -15 -7 -8 -27
-15 -45 -15 -18 0 -38 -7 -45 -15 -7 -8 -27 -15 -45 -15 -18 0 -38 -7 -45 -15
-7 -8 -27 -15 -45 -15 -18 0 -38 -7 -45 -15 -7 -8 -27 -15 -45 -15 -18 0 -38
-7 -45 -15 -8 -9 -30 -15 -60 -15 -30 0 -52 -6 -60 -15 -7 -8 -27 -15 -45 -15
-18 0 -38 -7 -45 -15 -8 -9 -30 -15 -60 -15 -30 0 -52 -6 -60 -15 -8 -9 -30
-15 -60 -15 -29 0 -52 -6 -60 -14 -6 -8 -21 -16 -33 -18 -21 -3 -22 -7 -25
-166 l-2 -162 929 0 c816 0 930 2 935 15 3 8 14 15 24 15 11 0 25 7 32 15 7 8
20 15 30 15 10 0 23 7 30 15 7 8 20 15 30 15 10 0 23 7 30 15 7 8 20 15 30 15
10 0 23 7 30 15 7 8 20 15 30 15 10 0 23 7 30 15 7 8 20 15 30 15 10 0 23 7
30 15 7 8 20 15 30 15 10 0 23 7 30 15 7 8 20 15 30 15 10 0 23 7 30 15 7 8
20 15 30 15 10 0 23 7 30 15 7 8 20 15 30 15 10 0 23 7 30 15 7 8 20 15 30 15
10 0 23 7 30 15 7 8 20 15 30 15 10 0 23 7 30 15 7 8 20 15 30 15 10 0 23 7
30 15 7 8 20 15 30 15 10 0 23 7 30 15 7 8 20 15 29 15 10 0 30 14 46 30 16
17 36 30 46 30 9 0 22 7 29 15 7 8 20 15 30 15 10 0 23 7 30 15 7 8 20 15 29
15 10 0 30 14 46 30 16 17 36 30 46 30 9 0 22 7 29 15 7 8 20 15 29 15 10 0
30 14 46 30 16 17 36 30 46 30 9 0 22 7 29 15 7 8 20 15 29 15 10 0 30 14 46
30 16 17 36 30 46 30 9 0 22 7 29 15 7 8 20 15 29 15 10 0 30 13 46 30 16 16
36 30 46 30 9 0 22 7 29 15 7 8 20 15 29 15 10 0 30 14 46 30 16 17 36 30 45
30 9 0 29 14 45 30 16 17 36 30 45 30 9 0 29 14 45 30 16 17 36 30 45 30 9 0
29 14 45 30 16 16 36 30 45 30 9 0 29 14 45 30 16 17 36 30 45 30 9 0 29 14
45 30 16 17 36 30 45 30 9 0 36 20 60 45 24 25 51 45 60 45 9 0 29 14 45 30
16 17 36 30 45 30 9 0 29 14 45 30 16 17 36 30 45 30 9 0 29 14 45 30 16 17
36 30 45 30 9 0 36 20 60 45 24 25 51 45 60 45 9 0 29 14 45 30 16 17 36 30
45 30 9 0 36 20 60 45 24 25 51 45 60 45 9 0 36 20 60 45 24 25 51 45 60 45 9
0 36 20 60 45 24 25 51 45 60 45 9 0 36 20 60 45 24 25 51 45 60 45 9 0 36 20
60 45 24 25 51 45 60 45 9 0 36 20 60 45 24 25 51 45 60 45 9 0 42 27 75 60
33 33 66 60 75 60 9 0 36 20 60 45 24 25 51 45 60 45 9 0 42 27 75 60 32 32
68 60 79 62 12 2 21 8 21 13 0 7 -235 11 -680 13 l-681 2 -44 -45z"/>
<path d="M18246 2601 c-3 -5 1 -14 9 -21 8 -7 15 -20 15 -30 0 -10 7 -23 15
-30 8 -7 15 -20 15 -29 0 -10 14 -30 30 -46 17 -16 30 -36 30 -46 0 -9 7 -22
15 -29 8 -7 15 -20 15 -30 0 -10 7 -23 15 -30 8 -7 15 -20 15 -29 0 -10 14
-30 30 -46 17 -16 30 -36 30 -45 0 -9 14 -29 30 -45 17 -16 30 -36 30 -45 0
-9 14 -29 30 -45 17 -16 30 -36 30 -45 0 -9 14 -29 30 -45 17 -16 30 -36 30
-45 0 -9 14 -29 30 -45 17 -16 30 -36 30 -45 0 -8 27 -42 60 -75 33 -33 60
-66 60 -75 0 -8 34 -49 75 -90 41 -41 75 -81 75 -90 0 -20 370 -390 390 -390
9 0 56 -40 105 -90 49 -49 97 -90 105 -90 9 0 36 -20 60 -45 24 -25 51 -45 60
-45 9 0 29 -14 45 -30 16 -17 36 -30 45 -30 9 0 36 -20 60 -45 24 -25 52 -45
61 -45 9 0 22 -7 29 -15 7 -8 20 -15 29 -15 10 0 30 -13 46 -30 16 -16 36 -30
46 -30 9 0 22 -7 29 -15 7 -8 20 -15 29 -15 10 0 30 -14 46 -30 16 -16 36 -30
46 -30 9 0 22 -7 29 -15 7 -8 20 -15 30 -15 10 0 23 -7 30 -15 7 -8 20 -15 30
-15 10 0 23 -7 30 -15 7 -8 20 -15 30 -15 10 0 23 -7 30 -15 7 -8 20 -15 30
-15 10 0 23 -7 30 -15 7 -8 27 -15 45 -15 18 0 38 -7 45 -15 7 -8 20 -15 30
-15 10 0 23 -7 30 -15 7 -8 27 -15 45 -15 18 0 38 -7 45 -15 7 -8 20 -15 30
-15 10 0 23 -7 30 -15 7 -8 27 -15 45 -15 18 0 38 -7 45 -15 7 -8 27 -15 45
-15 18 0 38 -7 45 -15 7 -8 27 -15 45 -15 18 0 38 -7 45 -15 8 -9 30 -15 60
-15 30 0 52 -6 60 -15 8 -9 30 -15 60 -15 30 0 52 -6 60 -15 9 -10 32 -15 75
-15 43 0 66 -5 75 -15 9 -10 32 -15 75 -15 43 0 66 -5 75 -15 9 -11 33 -15 92
-15 61 0 80 -3 84 -15 9 -23 2999 -23 3008 0 4 12 27 15 114 15 85 0 112 3
122 15 10 12 37 15 120 15 83 0 110 3 120 15 10 12 37 15 120 15 83 0 110 3
120 15 9 11 35 15 105 15 70 0 96 4 105 15 9 11 35 15 105 15 70 0 96 4 105
15 9 11 33 15 90 15 57 0 81 4 90 15 9 11 33 15 90 15 57 0 81 4 90 15 9 11
33 15 90 15 57 0 81 4 90 15 9 11 33 15 90 15 57 0 81 4 90 15 9 11 33 15 90
15 57 0 81 4 90 15 9 11 33 15 90 15 57 0 81 4 90 15 9 11 33 15 90 15 57 0
81 4 90 15 9 11 35 15 105 15 70 0 96 4 105 15 9 11 33 15 90 15 57 0 81 4 90
15 9 10 32 15 75 15 43 0 66 5 75 15 9 11 33 15 90 15 57 0 81 4 90 15 9 10
32 15 75 15 43 0 66 5 75 15 9 11 33 15 90 15 57 0 81 4 90 15 9 10 32 15 75
15 43 0 66 5 75 15 9 11 33 15 90 15 57 0 81 4 90 15 9 11 33 15 90 15 57 0
81 4 90 15 9 11 33 15 90 15 57 0 81 4 90 15 9 11 33 15 90 15 57 0 81 4 90
15 9 10 32 15 75 15 43 0 66 5 75 15 9 11 33 15 90 15 57 0 81 4 90 15 9 10
32 15 75 15 43 0 66 5 75 15 9 11 35 15 105 15 70 0 96 4 105 15 9 11 33 15
90 15 57 0 81 4 90 15 9 11 33 15 90 15 57 0 81 4 90 15 9 11 35 15 105 15 70
0 96 4 105 15 9 11 35 15 105 15 70 0 96 4 105 15 9 11 35 15 105 15 70 0 96
4 105 15 9 11 33 15 90 15 57 0 81 4 90 15 9 11 35 15 105 15 70 0 96 4 105
15 10 12 37 15 120 15 83 0 110 3 120 15 10 12 38 15 135 15 97 0 125 3 135
15 10 12 40 15 150 15 110 0 140 3 150 15 10 12 42 15 165 15 123 0 155 3 165
15 10 12 45 15 195 15 150 0 185 3 195 15 11 13 62 15 345 15 283 0 334 2 345
15 19 23 671 22 690 0 11 -13 39 -15 169 -13 l156 3 3 465 c1 256 0 471 -3
479 -4 11 -9 11 -23 -3 -26 -22 -193 -23 -212 -1 -11 13 -68 15 -405 15 -337
0 -394 -2 -405 -15 -11 -13 -62 -15 -345 -15 -283 0 -334 -2 -345 -15 -10 -12
-45 -15 -195 -15 -150 0 -185 -3 -195 -15 -10 -12 -42 -15 -165 -15 -123 0
-155 -3 -165 -15 -10 -12 -40 -15 -150 -15 -110 0 -140 -3 -150 -15 -10 -12
-38 -15 -135 -15 -97 0 -125 -3 -135 -15 -10 -12 -37 -15 -120 -15 -83 0 -110
-3 -120 -15 -10 -12 -37 -15 -120 -15 -83 0 -110 -3 -120 -15 -9 -11 -35 -15
-105 -15 -70 0 -96 -4 -105 -15 -9 -11 -33 -15 -90 -15 -57 0 -81 -4 -90 -15
-9 -11 -33 -15 -90 -15 -57 0 -81 -4 -90 -15 -9 -11 -35 -15 -105 -15 -70 0
-96 -4 -105 -15 -9 -11 -33 -15 -90 -15 -57 0 -81 -4 -90 -15 -9 -11 -35 -15
-105 -15 -70 0 -96 -4 -105 -15 -9 -11 -33 -15 -90 -15 -57 0 -81 -4 -90 -15
-9 -11 -33 -15 -90 -15 -57 0 -81 -4 -90 -15 -9 -11 -33 -15 -90 -15 -57 0
-81 -4 -90 -15 -9 -10 -32 -15 -75 -15 -43 0 -66 -5 -75 -15 -9 -11 -33 -15
-90 -15 -57 0 -81 -4 -90 -15 -9 -10 -32 -15 -75 -15 -43 0 -66 -5 -75 -15 -9
-11 -33 -15 -90 -15 -57 0 -81 -4 -90 -15 -9 -11 -33 -15 -90 -15 -57 0 -81
-4 -90 -15 -9 -11 -33 -15 -90 -15 -57 0 -81 -4 -90 -15 -9 -11 -33 -15 -90
-15 -57 0 -81 -4 -90 -15 -9 -10 -32 -15 -75 -15 -43 0 -66 -5 -75 -15 -9 -11
-33 -15 -90 -15 -57 0 -81 -4 -90 -15 -9 -10 -32 -15 -75 -15 -43 0 -66 -5
-75 -15 -9 -11 -33 -15 -90 -15 -57 0 -81 -4 -90 -15 -9 -11 -33 -15 -90 -15
-57 0 -81 -4 -90 -15 -9 -11 -33 -15 -90 -15 -57 0 -81 -4 -90 -15 -9 -11 -33
-15 -90 -15 -57 0 -81 -4 -90 -15 -9 -11 -35 -15 -105 -15 -70 0 -96 -4 -105
-15 -9 -11 -35 -15 -105 -15 -70 0 -96 -4 -105 -15 -9 -11 -33 -15 -90 -15
-57 0 -81 -4 -90 -15 -9 -11 -35 -15 -105 -15 -70 0 -96 -4 -105 -15 -9 -11
-33 -15 -90 -15 -57 0 -81 -4 -90 -15 -10 -12 -37 -15 -120 -15 -83 0 -110 -3
-120 -15 -10 -12 -37 -15 -120 -15 -83 0 -110 -3 -120 -15 -10 -12 -38 -15
-135 -15 -97 0 -125 -3 -135 -15 -10 -12 -40 -15 -150 -15 -110 0 -140 -3
-150 -15 -10 -12 -42 -15 -165 -15 -123 0 -155 -3 -165 -15 -10 -12 -47 -15
-210 -15 -163 0 -200 -3 -210 -15 -11 -13 -70 -15 -420 -15 -350 0 -409 -2
-420 -15 -18 -22 -402 -22 -420 0 -11 13 -57 15 -300 15 -243 0 -289 2 -300
15 -10 12 -38 15 -135 15 -97 0 -125 3 -135 15 -9 11 -35 15 -105 15 -70 0
-96 4 -105 15 -9 11 -33 15 -90 15 -57 0 -81 4 -90 15 -8 9 -30 15 -60 15 -30
0 -52 6 -60 15 -8 9 -30 15 -60 15 -30 0 -52 6 -60 15 -8 9 -30 15 -60 15 -30
0 -52 6 -60 15 -7 8 -27 15 -45 15 -18 0 -38 7 -45 15 -7 8 -27 15 -45 15 -18
0 -38 7 -45 15 -7 8 -27 15 -45 15 -18 0 -38 7 -45 15 -7 8 -20 15 -30 15 -10
0 -23 7 -30 15 -7 8 -27 15 -45 15 -18 0 -38 7 -45 15 -7 8 -20 15 -30 15 -10
0 -23 7 -30 15 -7 8 -27 15 -45 15 -18 0 -38 7 -45 15 -7 8 -20 15 -30 15 -10
0 -23 7 -30 15 -7 8 -20 15 -30 15 -10 0 -23 7 -30 15 -7 8 -20 15 -29 15 -10
0 -30 14 -46 30 -16 17 -36 30 -46 30 -9 0 -22 7 -29 15 -7 8 -20 15 -30 15
-10 0 -23 7 -30 15 -7 8 -20 15 -29 15 -10 0 -30 14 -46 30 -16 17 -36 30 -45
30 -9 0 -29 14 -45 30 -16 17 -36 30 -45 30 -9 0 -36 20 -60 45 -24 25 -51 45
-60 45 -9 0 -36 20 -60 45 -24 25 -51 45 -60 45 -20 0 -510 490 -510 510 0 9
-27 42 -60 75 -33 33 -60 66 -60 75 0 9 -20 35 -45 60 -24 24 -45 53 -47 64
-3 21 -6 21 -400 24 -227 1 -399 -2 -402 -7z"/>
</g></g></svg>